<svg xmlns="http://www.w3.org/2000/svg" viewBox="0 0 1251.7 159.84">
  <defs>
    <style>
      .cls-1 {
        fill: #fcee21;
      }
    </style>
  </defs>
  <g id="Layer_2" data-name="Layer 2">
    <g id="Layer_1-2" data-name="Layer 1">
      <g>
        <path class="cls-1" d="M140.4,115.2l-4.46,29.09q-6.34.57-11.52,1.51a88.77,88.77,0,0,0-10.73,2.66c-3.7,1.16-7.71,2.64-12,4.47s-9.41,4.12-15.26,6.91q-19.31-7.92-28.94-3.46L11.52,136.22,1.15,118.8,0,118.37,17.86,94.61c1.72,1.06,3.5,2.09,5.32,3.09s3.65,2,5.48,3Q26.2,90.58,24.48,79.49a144.94,144.94,0,0,1-1.73-22.32Q22.75,17,46.66,17q10.06,0,16.2,3.6T72.58,32.4q5-8.2,11.08-12.1t15.41-3.88a26.24,26.24,0,0,1,13,2.95q5.27,3,8,10.29L128,42.91a47.35,47.35,0,0,1,3.74,10.3A65.33,65.33,0,0,1,133.2,68.4a87.47,87.47,0,0,1-1.37,16,85.73,85.73,0,0,1-3.24,12.68Zm-18.86-9.36-23.48,5q1.88-5,4.68-12.1t6.7-16.56a91,91,0,0,0,4-12.67,76.72,76.72,0,0,0,2.16-19.15,68.83,68.83,0,0,0-1-12.82,22.55,22.55,0,0,0-3.09-8.28,11.67,11.67,0,0,0-5.19-4.39,18.77,18.77,0,0,0-7.27-1.29,22.72,22.72,0,0,0-9.14,1.72,21.08,21.08,0,0,0-7.2,5.33,45.47,45.47,0,0,0-6.19,9.15q-3,5.53-6.12,13A87.34,87.34,0,0,0,67.54,39.6,26.22,26.22,0,0,0,63,30.74a16.76,16.76,0,0,0-6.77-5,25.69,25.69,0,0,0-9.57-1.59Q30,24.19,30,57.17a130.53,130.53,0,0,0,.94,15.62q.93,7.86,2.45,15.34t3.38,14.47q1.88,7,3.74,12.89-2.3-1.15-7.34-4T19.87,104l-8.64,11.52L46.8,131q5.61-2.44,8.78-13.82-16.69-10.8-16.7-34.28,0-13,2.52-18.64t7-5.69A13.8,13.8,0,0,1,57.46,62a14.47,14.47,0,0,1,4.89,9.43l3.46,22c-.2,0,.12,0,.93-.08s1.78-.12,2.88-.21a26.93,26.93,0,0,0,3-.43c.91-.2,1.37-.44,1.37-.72q.42-11.23,1.29-18.51a53.73,53.73,0,0,1,2.38-11.45c1-2.78,2.3-4.7,3.89-5.76a10,10,0,0,1,5.68-1.58c2.79,0,4.85.91,6.2,2.74s2,4.89,2,9.21a108.69,108.69,0,0,1-1.8,20.74,72.37,72.37,0,0,1-4.75,15.77A35.06,35.06,0,0,1,82,113.69a18.63,18.63,0,0,1-8.28,5.11l5.47,13.82q7.2-3.45,12.46-5.68t9.79-3.68a65.41,65.41,0,0,1,8.71-2.16q4.17-.72,9.22-1.15Z"/>
        <path class="cls-1" d="M141.59,117.36a44.87,44.87,0,0,1,.87-8.21,52,52,0,0,1,2.37-8.64,28.37,28.37,0,0,1,3.53-6.77q2-2.73,4.18-2.73a14.52,14.52,0,0,1,2.3.21c.87.15,1.92.32,3.17.51.29-2,.62-4.15,1-6.41s.77-4.63,1.15-7.13L149.8,60.91l-.43.15c-.77-2.31-1.35-4.13-1.73-5.48s-.67-2.39-.86-3.16-.34-1.3-.43-1.59V46.94a19.25,19.25,0,0,1,1.29-6.76l-5.18-8.93q-3.75-3.32-3.75-11.09a19,19,0,0,1,.94-5.69,18.88,18.88,0,0,1,2.66-5.33,15,15,0,0,1,4.11-3.88,9.55,9.55,0,0,1,5.25-1.52,15.51,15.51,0,0,1,15.12,10.8l5.48,8.93a40.06,40.06,0,0,0,4.1-1.73,37.64,37.64,0,0,0,4.82-2.88q7.35,3.32,18.15,24.2a14,14,0,0,1,1.73,7,52.37,52.37,0,0,1-.8,6.12q-.78,4.83-1.87,11.45T196,81.94q-1.31,7.64-2.31,14.68l10.8,18.29c0,.1-.07.67-.21,1.73s-.32,2.54-.51,4.46q-.72,6.06-1.29,8.64a14.25,14.25,0,0,1-3.24,6.92q-2.52,2.88-8.57,2.88l-37.87-4.61ZM160.31,19a7.64,7.64,0,0,0-2.44-5.69,8.57,8.57,0,0,0-6.2-2.38,3.42,3.42,0,0,0-2.3.87,8.84,8.84,0,0,0-1.8,2.16,10.58,10.58,0,0,0-1.22,3,12.69,12.69,0,0,0-.44,3.24c0,4.42,1.78,6.62,5.33,6.62a8.59,8.59,0,0,0,3.1-.64,10.81,10.81,0,0,0,2.95-1.73A10.66,10.66,0,0,0,159.45,22,5.37,5.37,0,0,0,160.31,19Zm20.88,82.8a6.84,6.84,0,0,0-2.16-.15h-5.47c-.38-.38-.57-1.48-.57-3.31q0-.72.79-5.61t1.94-11.81Q176.88,74,178.24,66t2.52-15.12q1.16-7.12,2-12.31a63.36,63.36,0,0,0,.79-6.48q0-4.45-1.44-5a24.45,24.45,0,0,1-7.63,3.31,74.7,74.7,0,0,0-9.51,3.32A25.16,25.16,0,0,0,156.86,39a10.34,10.34,0,0,0-3.31,7.49,29.52,29.52,0,0,0,.14,4.61L172,42.34c.29.19.43,1,.43,2.3,0,.58-.19,2.23-.58,5s-.86,6-1.44,9.86-1.22,8-1.94,12.46-1.39,8.69-2,12.67S165.28,92,164.85,95s-.7,4.87-.79,5.83q-7.35-2.6-11.52-2.59-.72,0-1.44,1.29a14.28,14.28,0,0,0-1.23,3.24,34.9,34.9,0,0,0-.79,4.18,31.8,31.8,0,0,0-.29,4l32,3.89a3.37,3.37,0,0,0,3-1.3,8.58,8.58,0,0,0,1.37-3.24,22,22,0,0,0,.51-4,23.62,23.62,0,0,1,.36-3.67Z"/>
        <path class="cls-1" d="M316.57,95.62a125.68,125.68,0,0,1,5.25,12,49.57,49.57,0,0,1,2.81,13.75V122a13.9,13.9,0,0,1-1.44,5.83,29.84,29.84,0,0,1-4,6.26,56.87,56.87,0,0,1-6.05,6.27,86.78,86.78,0,0,1-7.49,6,92.24,92.24,0,0,1-11.37,6.92,66.16,66.16,0,0,1-12,4.75q-5.18,1.86-16.12,1.87-10.08,0-23.76-22.75c-3.08.29-6.91.76-11.52,1.44s-10,1.53-16.13,2.59q-11.08-17.72-11.23-17.57a21.69,21.69,0,0,1,.28-2.66c.2-1.3.39-2.67.58-4.11s.39-2.76.58-4a20.28,20.28,0,0,0,.28-2.23c.29-1.73.61-3.45.94-5.18a21.6,21.6,0,0,1,1.58-4.9,19.65,19.65,0,0,1,2.74-4.25,14.25,14.25,0,0,1,4.54-3.38h13.68L227,90.14a36.14,36.14,0,0,1-6.77-12.67A49.94,49.94,0,0,1,220,47.23a44.93,44.93,0,0,1,6.12-12.74,30.91,30.91,0,0,1,9.36-8.86,22.61,22.61,0,0,1,11.95-3.31q7.92,0,16.27,5.76v-.29A19.32,19.32,0,0,1,267.61,31q2.29,2.31,4.89,4.75l1.3,1.3q1.57-4.32,3.89-9.22a80.15,80.15,0,0,1,5-9.07A43.21,43.21,0,0,1,288,11.81c1.78-1.82,3.48-2.74,5.12-2.74q3.73,0,9.21,2.88t23.91,25.92q-6.48,9.51-12.75,18.87T303,73.44a44,44,0,0,1,6.48,10.37l7.78,13Zm-9.51,7.92a51.1,51.1,0,0,0-2.59-13.4,37.89,37.89,0,0,0-5.83-11.08A28.73,28.73,0,0,0,290,71.5a21.9,21.9,0,0,0-11-2.81l-13.39,2.16q-4.6.72-8.21,1.15a53.45,53.45,0,0,1-6.33.43q-16.71,0-16.71-12.67,0-13.83,10.23-13.82,5.18,0,12.81,3.6a110.24,110.24,0,0,1,16.71,10.08c4.41,3.16,6.57,4.75,6.48,4.75a36.35,36.35,0,0,1,3.17-7.56q2.44-4.68,5.9-10.44t7.63-12q4.17-6.26,8.35-12.31c-3-1.73-5.47-3.12-7.48-4.17a11.49,11.49,0,0,0-5-1.59c-.49,0-1.18.77-2.09,2.31s-2,3.48-3.17,5.83-2.45,4.87-3.74,7.56-2.55,5.21-3.75,7.56-2.28,4.3-3.24,5.83-1.68,2.3-2.16,2.3c-.19,0-.86-.57-2-1.72s-2.52-2.47-4.11-4l-4.75-4.47a36.49,36.49,0,0,0-3.82-3.24q-6.76-4.76-12.81-4.75a15.82,15.82,0,0,0-9,2.74,25.5,25.5,0,0,0-7.13,7.27A36.08,36.08,0,0,0,226.64,50a44.32,44.32,0,0,0-.58,21.74,40.12,40.12,0,0,0,3,8.79,20.39,20.39,0,0,0,4.53,6.33,8.43,8.43,0,0,0,5.83,2.45,16.08,16.08,0,0,0,4.11-.65q2.37-.64,4.82-1.58c1.63-.63,3.29-1.27,5-2s3.19-1.24,4.53-1.72q10.08-3.47,16-3.46,14,0,14,18,0,10.08-6.19,16.2T265,120.24a38.73,38.73,0,0,1-8.64-.79,12.68,12.68,0,0,1-5.69-3,20,20,0,0,1-4.32-6.12q-2-4-4.39-10.3H216.77a4.57,4.57,0,0,0-1.94,2.16,16.94,16.94,0,0,0-1.29,3.67q-.51,2.09-.87,4.47c-.24,1.58-.5,3.14-.79,4.68q18.28-3,26.21-3a10.65,10.65,0,0,1,3.45.43q0,22.61,19,22.61a36.2,36.2,0,0,0,9.65-1.44,61.17,61.17,0,0,0,10.37-4A85.32,85.32,0,0,0,290.5,124a64.51,64.51,0,0,0,8.43-6.62,37.73,37.73,0,0,0,5.9-6.91,12.1,12.1,0,0,0,2.23-6.48Zm-40.46,5.9c-1.35.58-2.64,1.08-3.89,1.51s-2.5.89-3.74,1.37a31.74,31.74,0,0,0,6,.72,17.39,17.39,0,0,0,8.35-1.94,13,13,0,0,0,5.47-5.55,33.18,33.18,0,0,0-5.62,1.51Zm-3,15.7a1.34,1.34,0,0,0-.22-.36,1.83,1.83,0,0,1-.22-.36Z"/>
        <path class="cls-1" d="M340.83,62.35a26.6,26.6,0,0,1-4-6.77,45.65,45.65,0,0,1-2.74-9.07q3.46-2.73,7.85-6.33t8.71-7.28l8.21-7q3.89-3.32,6.34-5.47a28.94,28.94,0,0,1,5.9,5.9L416.72,9.07l26.49,64.08-24-12.81-.44.43A10.2,10.2,0,0,1,421,65.09q10.93,18,22,40.17c0,.49-.12,2-.36,4.54s-.55,5.49-.94,8.86-.81,6.84-1.29,10.44-1,6.64-1.44,9.14q-20.31,2.44-41.47,13-8.07-9.8-8.64-6.77c-.2,1.06-.41,2.09-.65,3.1s-.46,2-.65,3.09l-49.54-10.8-11.23-17.56q0-16.71,9.79-21.32l18.87,4.47q.14-5.47.21-10.37t.08-9.5l-4.68-7.35Q347.46,72.43,340.83,62.35ZM412.4,18.43l-23.76,8.93c1.34.38,2.73.84,4.17,1.37s3,1.17,4.61,1.94a200.7,200.7,0,0,0-14.25,17.5A128.25,128.25,0,0,0,372.94,64.8q-.15-30.09-7.34-35.14-4.91,4.19-10.8,9.15t-13,10.58q1.44,7.78,3.74,8.93l14.83-9.94Q363,61.78,363,85.54q0,6.48-.15,13.6c-.09,4.76-.29,9.87-.57,15.34l-24.92-5.9c-2.21,1-3.31,3.65-3.31,7.77l37.59,8.21a117.52,117.52,0,0,0,1.8-11.88q.65-6.41.64-13.9V94a4.25,4.25,0,0,0-.14-1.58,8.09,8.09,0,0,1,1.58-1.37c1.06-.81,2.4-1.82,4-3s3.4-2.5,5.32-3.89,3.8-2.67,5.62-3.82,3.46-2.11,4.9-2.88a8,8,0,0,1,3-1.15,5.16,5.16,0,0,1,3.46,1c.76.67,1.15,2.11,1.15,4.32a21.62,21.62,0,0,1-.72,4.17q-.72,3-1.8,7t-2.31,8.35q-1.21,4.4-2.3,8.42t-1.8,7.13a22.6,22.6,0,0,0-.72,4.39,2.3,2.3,0,0,0,.07.58,2.25,2.25,0,0,1,.07.58,85,85,0,0,1,29.09-8.21q.57-2.73,1.08-5.69l.94-5.47c.29-1.68.5-3.1.65-4.25s.21-1.78.21-1.87q-14.25,5-22.17,12Q414.84,84.09,415.13,73v-.43q0-10.23-9.79-13.54L375.82,78.48a256.94,256.94,0,0,1,14.76-24.26,175.62,175.62,0,0,1,16.35-20.38L420.32,41ZM385,34.13c-3.17-.87-6.91-1.87-11.23-3,.19.39.36.75.5,1.08s.31.7.5,1.08L379.57,41l2.59-3.46A43.86,43.86,0,0,1,385,34.13Z"/>
        <path class="cls-1" d="M448,113.9Q443,96.62,443,87a76.38,76.38,0,0,1,4.25-25.2A78.2,78.2,0,0,1,458.59,40.1a59.8,59.8,0,0,1,16.56-15.19A37.43,37.43,0,0,1,495,19.15q28.37,0,44.93,34.71,6.48,10.8,6.48,28.65a77,77,0,0,1-4.18,25.63A65.13,65.13,0,0,1,530.45,129a55.06,55.06,0,0,1-18.29,14.12,54.14,54.14,0,0,1-23.83,5.18q-9.65,0-16.27-4Q465,140.11,448,113.9Zm80.78-49.39q0-38.16-33.84-38.16a31.64,31.64,0,0,0-17.06,5.11,52,52,0,0,0-14.33,13.61,69.84,69.84,0,0,0-9.79,19.44A71.5,71.5,0,0,0,450.17,87a56.12,56.12,0,0,0,1.8,14.61,36.18,36.18,0,0,0,5.25,11.59,23.8,23.8,0,0,0,20.31,10.37,46.78,46.78,0,0,0,21.09-4.68,49.43,49.43,0,0,0,16.13-12.67,58.1,58.1,0,0,0,10.37-18.72A70.4,70.4,0,0,0,528.79,64.51ZM513.38,75.46a49.82,49.82,0,0,1-4.68,11.88,60.75,60.75,0,0,1-7.56,10.94,42.75,42.75,0,0,1-9.14,8.06,17.41,17.41,0,0,1-9.43,3.1q-11.67,0-17.71-6.48t-6.05-17.71a37.21,37.21,0,0,1,1.58-10.37A63.05,63.05,0,0,1,464.71,64a66.18,66.18,0,0,1,6.41-10.23,63.92,63.92,0,0,1,7.78-8.56,35.92,35.92,0,0,1,8.56-5.91,19.82,19.82,0,0,1,8.64-2.16,12.79,12.79,0,0,1,7.56,2.38,20.28,20.28,0,0,1,5.76,6.33,33.25,33.25,0,0,1,3.68,9.36,49.17,49.17,0,0,1,1.29,11.45Q514.39,72.86,513.38,75.46Zm-6.91-2.16a13,13,0,0,0,.58-3c.09-1.1.14-2.32.14-3.67V65.52a3.11,3.11,0,0,0-.14-1.15,1.87,1.87,0,0,0-.65-1.23,2.64,2.64,0,0,0-1.94-.64,10.38,10.38,0,0,0-3.32.72,19.07,19.07,0,0,0-4.6,2.59A44.05,44.05,0,0,0,487,75.38a65,65,0,0,0-7.34,12.75q-2.88,6.91-1.8,10.51a4.52,4.52,0,0,0,4.68,3.6,12.41,12.41,0,0,0,7.13-2.59,35.25,35.25,0,0,0,7-6.7,52.49,52.49,0,0,0,5.9-9.14,43,43,0,0,0,3.75-10.08Z"/>
        <path class="cls-1" d="M696.69,23.33a.81.81,0,0,0-.28.57l10.51,17.57-.43.87a13.28,13.28,0,0,0-.58,1.29q-.28.72-1.08,2.52t-2.23,5q-2.45,6.2-3.89,7.63a15.16,15.16,0,0,1-3,3,20.21,20.21,0,0,1-4.75,2.59l-7.78-4.61Q680.57,71,676.61,93.1t-9,55.65l-29.23-1.58L627.14,129.6,615.62,71.86l-7.2,6.76q-8.05,0-31-38L624.26.43c.1.48.19.92.29,1.3a4.43,4.43,0,0,0,.29.86l9.93,16.56q5.76,22.18,8.79,26.07,3.32,4.17,5.61-4.18,3.47-12.67,6.92-23.4t6-17.64Zm-31-12.39q-1.72,4.62-4,11.88T657,38.52q-2.44,8.43-4.82,17.42t-4.25,17c-1.25,5.32-2.26,10.08-3,14.25a57.92,57.92,0,0,0-1.15,9.29q-2.3-1.87-23.47-83.09L586.39,42.62q5.33,11.24,8.64,11.24l20.45-19.3,17.71,88.13,18,1q6-39.18,10.37-62.28t6.77-30l12.38,7.49q1.72-.87,3.17-4.68t3.6-8.42Z"/>
        <path class="cls-1" d="M821.18,132.19q-1,7.63-1.94,11.81a14.44,14.44,0,0,1-2.74,6.26,7.64,7.64,0,0,1-5,2.52,65.19,65.19,0,0,1-8.49.44h-1.15q-24.35-.3-30.1-8.79l-3-4.89Q755.95,151.2,740,151.2q-15,0-21.46-10.8-16.28-22.75-16.27-33.55,0-10.23,1.58-14.55a42.64,42.64,0,0,1,7.42-10.87,53.5,53.5,0,0,1,11-9.14l-4-6.91a33.44,33.44,0,0,1-3.09-4.4,40.91,40.91,0,0,1-2.6-5,40.22,40.22,0,0,1-1.72-4.75,13.19,13.19,0,0,1-.65-3.53,23.49,23.49,0,0,1,3.53-12.24,40.57,40.57,0,0,1,9-10.44,47.1,47.1,0,0,1,12.09-7.27A33.58,33.58,0,0,1,747.6,15q11.8,0,20.3,5.9t20.45,28.66Q794.11,59,794,72.86c-.1,1.16-.15,2.26-.15,3.32V89.57c.1,2,.19,4.2.29,6.55s.24,4.73.43,7.13q10.08.85,14.4,5.33Zm-17.57-18.86q-2.88-3-25.92-3c0-.48,0-1,.08-1.65s.07-1.42.07-2.38,0-2.4-.07-4-.13-3.5-.22-5.62-.17-4.41-.22-6.62-.16-4.41-.36-6.62-.19-5-.28-8.36-.24-7.34-.44-11.95q.3-16.84-1.87-22A27.7,27.7,0,0,0,768.62,31a25.7,25.7,0,0,0-9.14-6.48,30.07,30.07,0,0,0-11.88-2.3,28.35,28.35,0,0,0-10.37,2.08A36.17,36.17,0,0,0,727.51,30a33.62,33.62,0,0,0-7.27,8.21,17.7,17.7,0,0,0-2.88,9.5,15.9,15.9,0,0,0,.43,3.17,31.6,31.6,0,0,0,1.15,4,28.65,28.65,0,0,0,1.59,3.68,4.61,4.61,0,0,0,1.72,2.08l12.1-3.6q.43-21.6,8.93-21.6a22.26,22.26,0,0,1,9.5,2,23,23,0,0,1,7.42,5.47A24.91,24.91,0,0,1,765,51.19a30.82,30.82,0,0,1,1.73,10.44,28.81,28.81,0,0,1-.5,4.61,57.87,57.87,0,0,1-1.3,5.69,27.82,27.82,0,0,1-1.8,4.82c-.67,1.35-1.35,2-2,2A72.15,72.15,0,0,0,752.35,74a22,22,0,0,0-19.73.36,51,51,0,0,0-10.94,6.55,45.68,45.68,0,0,0-8.79,8.93q-3.45,5-3.45,20.73,0,15.84,19.73,15.84a34.15,34.15,0,0,0,19.08-5.69q8.7-5.68,16.2-17.92c3-5,4.6-7.4,4.89-7.2q.87,1.29.87,6.48a154.71,154.71,0,0,1-2.16,22.6q2.44,3.47,23,3.75h1.15a36.6,36.6,0,0,0,5.11-.29,4.57,4.57,0,0,0,3.1-1.8,11.81,11.81,0,0,0,1.8-4.54Q802.9,118.81,803.61,113.33Zm-87.84-52a2.2,2.2,0,0,0,.58,1.16Zm35.14,29.38c0,1.54-.77,3.38-2.3,5.54a44.75,44.75,0,0,1-11.74,11.24c-2.16,1.39-3.87,2.08-5.11,2.08q-9.22,0-9.22-9.79,0-6,6.48-9.65t17.28-3.6A5.06,5.06,0,0,1,749.18,88,3.89,3.89,0,0,1,750.91,90.72Zm3.17-30.53a5.6,5.6,0,0,0-4.9,3l.43,1.58a13.84,13.84,0,0,1,4.76,1.3c1.34.57,2.54.19,3.6-1.16s1.17-2.47.36-3.38S756.09,60.19,754.08,60.19ZM781,124.42a.43.43,0,0,1-.15-.29Z"/>
        <path class="cls-1" d="M920.55,91l10.37,18.14-8.78,39.31q-17.57-.57-26.35-1.29-4.47-.3-8.21-.36t-6.91.07q-9.07.72-21.31,1.58t-27.94,2.16l-10.51-17.71a.57.57,0,0,0-.36.07.55.55,0,0,1-.36.08q.85-6.63,1.36-11.52a67.09,67.09,0,0,0,.37-9.08,33.38,33.38,0,0,0-.15-3.52c-.09-.92-.19-1.78-.29-2.6s-.21-1.63-.36-2.44-.26-1.8-.36-3h19.73l1.15-36.57-9.07.86L822.06,47.66h-1L834.3,18.29l55.87-1.15a1.84,1.84,0,0,1-.07.43,2.92,2.92,0,0,0-.07.72l10.51,17.28q0,7.05-.29,12c-.19,3.31-.53,6.51-1,9.58l-19.58,7.77a126.21,126.21,0,0,0-2.09,15.12q-.65,8.07-.79,17.57,5-.43,10-.79t8.42-.5q1-3.32,2.81-7.85c1.2-3,2.61-6.55,4.25-10.59Zm-15.26-2.16q-4,8.49-4,13.82-4.47.72-8.71,1t-9.58.72c-3.55.19-7.3.43-11.23.72s-7.73.53-11.38.72q-.57-4-.86-9.07t-.29-11.09q0-29.24,4-44.93h.29c.29,0,1.42-.14,3.39-.43l6.4-.94q3.46-.5,6.12-.93c1.78-.29,2.57-.38,2.38-.29.19-1.63.38-3.58.58-5.83s.38-4.87.57-7.85l-43.92.86-6.34,14.12,15.7-1.3-.86,70H829a32.29,32.29,0,0,1,.15,4.9c0,2.78-.08,5.09-.22,6.91s-.31,3.55-.5,5.19q21.12-1.59,32.23-2.45t13.85-.87c.95,0,4,.15,9.28.44s12.65.67,22.25,1.15L912.49,94Z"/>
        <path class="cls-1" d="M1032.59,86.54,1043,103.82v3.32a24.84,24.84,0,0,1-2.53,10.36,54.6,54.6,0,0,1-6.69,10.8,78.94,78.94,0,0,1-9.79,10.3,86.22,86.22,0,0,1-11.81,8.78,66.1,66.1,0,0,1-12.67,6.12A39.9,39.9,0,0,1,987.08,156H985.5a40.26,40.26,0,0,1-20.67-5.25,40.71,40.71,0,0,1-14.61-14.76l-7.2-12.1a51.51,51.51,0,0,1-9.22-17.28,72.86,72.86,0,0,1-3.17-22.18A82.09,82.09,0,0,1,935,57.31,77.66,77.66,0,0,1,947.19,34.7a60.88,60.88,0,0,1,17.72-15.55q10.07-5.76,19.44-5.76A56.79,56.79,0,0,1,998.89,15q10.08,3.16,15.55,10.51,1.15,1.59,3.39,5.25t5.4,9.15q3.16,5.47,5,9.5a34.51,34.51,0,0,1,2.44,6.63q1.3,5-12.24,20.73A48.14,48.14,0,0,1,1032.59,86.54Zm-7.2,2.31q-7.64-6.63-13.83-7.78-1,14.4-7.13,21.89T988,110.45a27.16,27.16,0,0,1-10-2,33.84,33.84,0,0,1-9-5.18A30,30,0,0,1,962.31,96a16.91,16.91,0,0,1-2.73-8.57l55-42.63a67.49,67.49,0,0,0-1.8-8.2,20.69,20.69,0,0,0-4.25-7.85,22.47,22.47,0,0,0-8.43-5.83q-5.4-2.31-14.32-2.31a35.48,35.48,0,0,0-18,5.19,52.26,52.26,0,0,0-15.56,14,71.24,71.24,0,0,0-10.51,20.38,75.87,75.87,0,0,0-3.89,24.26,65.11,65.11,0,0,0,2.6,18.94,45.57,45.57,0,0,0,7.34,14.76,41.46,41.46,0,0,0,5.11,5.33,32.68,32.68,0,0,0,6.41,4.32,32,32,0,0,0,14.54,3.38A41.15,41.15,0,0,0,987.08,129a63.31,63.31,0,0,0,14-7A73,73,0,0,0,1013.36,112a54,54,0,0,0,8.71-11.52,23.41,23.41,0,0,0,3.32-11.3ZM958.57,77.18c-1.82.1-2.93-.28-3.31-1.15s-.48-4.32,0-10.37a53.62,53.62,0,0,1,1.08-8.2,25.24,25.24,0,0,1,2.23-6.34,33.78,33.78,0,0,1,8.14-10.22,26.23,26.23,0,0,1,13.6-6q7.63-1.44,11.67,1,3.6,2.3,6.91,7.92ZM988,103.25q9.49,0,14.11-13.83L984.49,103l1.15.22a4,4,0,0,0,.58.07Z"/>
        <path class="cls-1" d="M1144.7,54.14a70.22,70.22,0,0,1,2,15.56,104.13,104.13,0,0,1-1.59,17.2,103.51,103.51,0,0,1-4.89,18.51L1147,116.5h-.15l.43.57a9.59,9.59,0,0,1,2,3,26,26,0,0,1,1.3,3.68,27.63,27.63,0,0,1,.72,3.67,27.24,27.24,0,0,1,.21,3.09,47.35,47.35,0,0,1-.5,5.76c-.34,2.5-.84,5.76-1.51,9.8q-56.46-3.47-62.07-1.88l-4.89,1.73q-2.46.87-4.9,1.87-4.75,1.88-9.07,3.89a79.35,79.35,0,0,0-7.2,3.75l-10.51-17.57a1.73,1.73,0,0,0-.72.43l.72-29.66,12.09-7.2q-.72-6.48-1.58-12.17t-1.73-10.59l-5.33,2q-4.32-2.3-8.49-9.07-13-18.28-13.4-29.38l41.48-23.61.43,2,5.33,8.79a5.23,5.23,0,0,1,.57-.51,6.23,6.23,0,0,0,.58-.5v.14Q1090.55,20,1108,20h.87Q1129.15,20.31,1144.7,54.14ZM1133,121.25a51.07,51.07,0,0,0,.86-8.74q0-7-3-10.41-5.48,2-9.86,3.52a69.38,69.38,0,0,1-7.71,2.24,151,151,0,0,0,11.81-29.16,99.86,99.86,0,0,0,4-27,51.85,51.85,0,0,0-.94-10.37,18.45,18.45,0,0,0-3.31-7.71,15.3,15.3,0,0,0-6.26-4.75,25.19,25.19,0,0,0-9.79-1.65H1108a39.13,39.13,0,0,0-13.46,2.08,34.44,34.44,0,0,0-9.72,5.33,29.25,29.25,0,0,0-6.55,7.27,43.67,43.67,0,0,0-4,7.92l-5.19-20.16-29.37,16.73c.19,4.32,1.63,7.26,4.32,8.79l13.82-5.48q8.2,11.25,12.82,55.8l-12.82,7.5-.29,12.54a43.46,43.46,0,0,1,5.69-2.72c2.35-.95,4.83-1.86,7.42-2.72s5.13-1.64,7.63-2.31a44.75,44.75,0,0,1,6.19-1.29l-4.89-56.6a46.27,46.27,0,0,1,10.72-12.24,21.16,21.16,0,0,1,13.18-4.46q13.68,0,13.68,13.68a49.8,49.8,0,0,1-.86,8.57,107.21,107.21,0,0,1-3.1,12.09q-2.23,7.27-6,17.72t-9.57,25.41ZM1105,70.85q-2.6,2.59-4.54,4.75a28.67,28.67,0,0,0-3.09,4l1.44,17Q1106.11,77.62,1105,70.85Zm42,45.65a.81.81,0,0,0,.28.57l.29.43Z"/>
        <path class="cls-1" d="M1246.37,104.69c.76,1.92,1.44,3.55,2,4.89a33.63,33.63,0,0,1,1.3,3.46,32.49,32.49,0,0,1,2,9.5,19.8,19.8,0,0,1-2,8.36,41.42,41.42,0,0,1-5.33,8.42,54.88,54.88,0,0,1-7.63,7.7,66.08,66.08,0,0,1-9,6.34,51.44,51.44,0,0,1-9.36,4.32,26.83,26.83,0,0,1-8.57,1.58,35.28,35.28,0,0,1-9.79-1.36,39.16,39.16,0,0,1-8.93-3.82,41.39,41.39,0,0,1-7.7-5.83,34.77,34.77,0,0,1-6-7.56l-8.21-13.54a39.55,39.55,0,0,1-5.9-10.44,34,34,0,0,1-2.16-12.17A42.24,42.24,0,0,1,1162.7,95q1.59-6.27,3.75-13.18c-2.5.2-4.85.36-7.06.51s-3.93.26-5.18.36l-11.67-17.57,21.17-35.71a31.52,31.52,0,0,1,9.07,1.29,65.25,65.25,0,0,0,9.07,2,5.9,5.9,0,0,1-1-2.23,25.78,25.78,0,0,1-.22-2.74c-.05-1.2-.12-2.86-.22-5s-.43-5.09-1-8.93a51.81,51.81,0,0,1,7.84-3.81,65.26,65.26,0,0,1,8.64-2.59q4.68-1.08,10.37-1.95l13.32-2-.29,1L1229.81,22q2.88,8.2,13.39,28.37,2.16,3.75,2.16,12.1,0,13-7.2,14.11l-9.07,1.15a18,18,0,0,1,4.17,4.61,46,46,0,0,1,3.6,6.48Zm-12.24-.15a32.37,32.37,0,0,0-.58-5.4,52,52,0,0,0-1.51-6.26,38.59,38.59,0,0,0-2.09-5.4,5.81,5.81,0,0,0-2.45-3L1213,91.87q5.47,7.2,5.47,13.39v.44a10.9,10.9,0,0,1-1.15,4.82,11.78,11.78,0,0,1-3.53,4.18,18.91,18.91,0,0,1-5.83,2.88,27.65,27.65,0,0,1-8.21,1.08,10,10,0,0,1-5.25-1.52,15.94,15.94,0,0,1-4.4-3.88A22.8,22.8,0,0,1,1187,108a16.1,16.1,0,0,1-1.37-5.47v-2q0-7.49,3.17-18.79t8.78-26.57l28.94-3.31q1.3-.14,1.3-7.34,0-8.79-1-8.79-8.92,2.59-25.34,4.75l8.21-28.22q-9.08,1.88-14.62,3.1a33.24,33.24,0,0,0-7.7,2.37c.19,1.54.36,3,.5,4.32a37.73,37.73,0,0,1,.22,3.89c0,1.63,0,3.29-.15,5a28.82,28.82,0,0,1-.57,4.53,8.86,8.86,0,0,1-1.37,3.32,2.84,2.84,0,0,1-2.38,1.29,25.49,25.49,0,0,1-3.74-.43c-1.73-.29-3.51-.62-5.33-1l-4.82-1c-1.4-.28-2.14-.43-2.23-.43l-11.67,19.73q4.32-.29,8.14-.5c2.54-.15,4.92-.22,7.12-.22s4.23.07,6,.22,3.51.31,5,.5V57a22,22,0,0,1-1,3.39c-.67,2-1.53,4.46-2.59,7.49s-2.16,6.33-3.31,9.93S1173,85,1171.92,88.42s-1.92,6.62-2.59,9.5a31.17,31.17,0,0,0-1,6.62,27.1,27.1,0,0,0,2.52,11.6,31.69,31.69,0,0,0,6.77,9.5,32,32,0,0,0,9.79,6.48A29.18,29.18,0,0,0,1199,134.5a27.12,27.12,0,0,0,11.16-2.81,53.53,53.53,0,0,0,11.45-7.13,44.59,44.59,0,0,0,8.93-9.65A18.53,18.53,0,0,0,1234.13,104.54Zm-26.79-7.34c-.77,2.5-1.46,4.92-2.09,7.27s-1.13,4.59-1.51,6.7a11.22,11.22,0,0,0,5.62-2.16,4.42,4.42,0,0,0,1.87-3.31v-.44a5.12,5.12,0,0,0-.58-2.59Zm5.76-17.71a19.18,19.18,0,0,0-.93,2.59,19.25,19.25,0,0,1-.94,2.59l13-6.48Zm6.48,36.72a1.38,1.38,0,0,1-.36-.58,1.29,1.29,0,0,0-.36-.57Z"/>
      </g>
    </g>
  </g>
</svg>
