<svg xmlns="http://www.w3.org/2000/svg" width="128" height="128" version="1.0"><path d="M157.302 429.822c10.047 10.992 5.387 31.625-10.402 46.056-15.789 14.431-36.757 17.222-46.804 6.23-10.047-10.992-5.387-31.626 10.402-46.057 15.722-14.37 36.573-17.211 46.682-6.361l.122.132z" style="fill:#ffb600;fill-opacity:1;fill-rule:evenodd;stroke:#000;stroke-width:5.1637945199999997;stroke-linecap:butt;stroke-linejoin:round;marker:none;marker-start:none;marker-mid:none;marker-end:none;stroke-miterlimit:4;stroke-dasharray:none;stroke-dashoffset:0;stroke-opacity:1;visibility:visible;display:inline;overflow:visible;enable-background:accumulate" transform="translate(-66.38 -391.322)"/><path style="fill:red;fill-rule:evenodd;stroke:none;stroke-width:1px;stroke-linecap:butt;stroke-linejoin:miter;stroke-opacity:1" d="M100.63 448.652c15.973 5.855 28.876 16.171 34.762 36.687l20.792-21.503c-4.548-18.426-16.109-30.041-34.655-34.872l-20.898 19.688z" transform="translate(-66.38 -391.322)"/><path style="fill:none;fill-opacity:1;fill-rule:evenodd;stroke:#000;stroke-width:6;stroke-linecap:butt;stroke-linejoin:round;marker:none;marker-start:none;marker-mid:none;marker-end:none;stroke-miterlimit:4;stroke-dasharray:none;stroke-dashoffset:0;stroke-opacity:1;visibility:visible;display:inline;overflow:visible;enable-background:accumulate" d="M157.524 429.78c10.047 10.993 5.387 31.626-10.402 46.057-15.79 14.431-36.757 17.222-46.804 6.23-10.047-10.992-5.387-31.626 10.402-46.057 15.722-14.37 36.573-17.211 46.682-6.361l.122.132z" transform="translate(-66.38 -391.322)"/><path style="fill:red;fill-opacity:1;fill-rule:evenodd;stroke:#000;stroke-width:6;stroke-linecap:round;stroke-linejoin:round;stroke-miterlimit:4;stroke-dasharray:none;stroke-opacity:1" d="M158.248 427.324c10.005 4.394 25.153 2.173 30.205-3.536-2.58-.541-5.016-3.153-6.516-6.17-1.574-3.166-.145-7.288-2.82-9.735-3.053-2.795-7.302-1.26-10.539-2.94-2.848-1.477-3.767-4.597-6.718-8.06-7.071 9.554-6.451 21.007-3.612 30.44zM102.027 483.874c-9.978-4.456-25.14-2.328-30.227 3.35 2.578.557 4.997 3.184 6.478 6.21 1.555 3.175.1 7.288 2.76 9.752 3.036 2.814 7.294 1.305 10.521 3.004 2.84 1.495 3.74 4.62 6.67 8.102 7.129-9.51 6.579-20.968 3.798-30.418z" transform="translate(-66.38 -391.322)"/></svg>