<svg data-name="Layer 1" xmlns="http://www.w3.org/2000/svg" viewBox="0 0 1510.15 1279.17"><path d="M916.29 1455.79c-161.78 12-301.35-101.8-393.52-224.28-31.92-25.19-68.93 31.79-114.23 20.36-147.66-21.25-126.9-29.94-155.92 112.82-108.27 70.48-127-318.13-91.09-378.43 72-187.53 151.35-44 244.56 20.7 65.07-57.18-194.42-220.57-31.49-562.87 149-337.49 680.54-171 640.76 185.08 10 94.65-51 209.26 3.56 292.83 87.13 11.48 128.28-210.64 226.47-122.09 77.72 160.64 65.55 222 233 331.22 31.68 44.51-39.27 76.4-73.54 87.43-85.22 31.19-167.52-35.33-251.44-26.39-71.33 7.06-51.7 63.2 3.44 79.31 89.29 37.94 226.12-37.19 274.72 78.89 24.31 93.14 116 90.47 193.47 95.92 65 21.76 11 89.36-36.68 88.93-173.29 35.71-296.93-160.81-466.31-121.83-67.24 18.66-136.76 38.4-205.76 42.4ZM629.08 766.5C598.49 602.74 527.24 800.59 578 862c48.49 44.52 59-70.71 51.08-95.5ZM433.27 585.15c27.59 204.68 168-103.84 50.23-123.79-42.92 19.14-50.5 82.4-50.23 123.79Zm229.66-65.55c-4.46 40 13.55 173.48 73.91 126.58 57.81-69.06-42.4-317.29-73.91-126.58Z" transform="translate(-144.92 -260.42)" style="fill:#fff"/></svg>