<svg xmlns="http://www.w3.org/2000/svg" viewBox="0 0 84.4 404">
  <defs>
    <style>
      .cls-1, .cls-4 {
        fill: none;
        stroke: #000;
        stroke-linecap: round;
        stroke-linejoin: round;
      }

      .cls-1 {
        stroke-width: 4px;
      }

      .cls-2 {
        font-size: 32px;
        font-family: MyriadPro-Bold, Myriad Pro;
        font-weight: 700;
        letter-spacing: -0.08em;
      }

      .cls-3 {
        letter-spacing: -0.03em;
      }

      .cls-4 {
        stroke-width: 3px;
      }
    </style>
  </defs>
  <g id="Layer_2" data-name="Layer 2">
    <g id="Pole">
      <g id="flag_pole">
        <g id="post">
          <line class="cls-1" x1="82.4" y1="2" x2="82.4" y2="402"/>
        </g>
        <g id="flag">
          <g id="Flag-2" data-name="Flag">
            <path d="M73.9,5.84v48l-72-24,72-24m0-1.9a1.8,1.8,0,0,0-.6.1L1.3,28a1.9,1.9,0,0,0,0,3.6l72,24a1.8,1.8,0,0,0,.6.1A1.84,1.84,0,0,0,75,55.38a1.89,1.89,0,0,0,.79-1.54v-48A1.88,1.88,0,0,0,75,4.3a1.84,1.84,0,0,0-1.11-.36Z"/>
            <text class="cls-2" transform="translate(35.67 39.23)">1<tspan class="cls-3" x="15.09" y="0">8</tspan></text>
          </g>
          <g>
            <line class="cls-4" x1="69.9" y1="13.84" x2="81.9" y2="13.84"/>
            <line class="cls-4" x1="69.9" y1="45.84" x2="81.9" y2="45.84"/>
          </g>
        </g>
      </g>
    </g>
  </g>
</svg>
